<?xml version="1.0" encoding="utf-8"?>
<!-- Generator: Adobe Illustrator 21.0.0, SVG Export Plug-In . SVG Version: 6.00 Build 0)  -->
<svg version="1.1" id="Capa_1" xmlns="http://www.w3.org/2000/svg" xmlns:xlink="http://www.w3.org/1999/xlink" x="0px" y="0px"
	 viewBox="0 0 20 28" style="enable-background:new 0 0 20 28;" xml:space="preserve">
<style type="text/css">
	.st0{fill:#67CFE3;}
	.st1{fill:#F7F7F7;}
</style>
<title>pin ceremonia</title>
<g id="Capa_2">
	<g id="Capa_1-2">
		<path class="st0" d="M10,2.9c-4.5,0-8.1,3.6-8.1,8.1c0,0,0,0,0,0c0,4.5,8.1,14.1,8.1,14.1s8.1-9.7,8.1-14.1
			C18.1,6.5,14.5,2.9,10,2.9z"/>
		<path class="st1" d="M12,7.8c-1.8,0-3.3,1.5-3.3,3.3c0,0.6,0.2,1.3,0.5,1.8c0.1,0.1,0.2,0.1,0.3,0c0.1-0.1,0.1-0.1,0-0.2
			c-0.9-1.3-0.5-3.2,0.8-4s3.2-0.5,4,0.8c0.9,1.3,0.5,3.2-0.8,4c-0.9,0.6-2.1,0.6-3,0.1c-0.1,0-0.2,0-0.3,0.1c0,0.1,0,0.2,0.1,0.2
			c1.6,0.9,3.6,0.4,4.5-1.2s0.4-3.6-1.2-4.5C13.3,7.9,12.7,7.8,12,7.8L12,7.8z"/>
		<path class="st1" d="M10.4,9.4c-0.1-0.1-0.2-0.1-0.3,0c-0.1,0.1-0.1,0.1,0,0.2c0.4,0.5,0.5,1,0.5,1.6c0,1.5-1.2,2.6-2.6,2.6
			s-2.6-1.2-2.6-2.6S6.6,8.6,8,8.6c0.4,0,0.7,0.1,1,0.2c0.1,0,0.2,0,0.3-0.1c0-0.1,0-0.2-0.1-0.3C7.7,7.8,5.9,8.5,5.3,10
			s0.1,3.3,1.6,3.9s3.3-0.1,3.9-1.6C11.2,11.3,11.1,10.2,10.4,9.4z"/>
	</g>
</g>
</svg>
